<svg width="152" height="34" fill="none" xmlns="http://www.w3.org/2000/svg"><g clip-path="url(#clip0)" fill="#fff"><path d="M17.964 8.652c.33-.33.55-.696.367-1.063-.11-.257-.367-.367-.843-.367H8.506c-.734 0-1.357.624-1.357 1.357v.073c0 1.137-.293 2.09-.77 2.713-.696.917-1.65 1.283-2.786 1.283-1.137 0-2.09-.403-2.786-1.283C.293 10.742 0 9.79 0 8.652V5.83c0-1.576.587-3.116 1.613-4.143C2.64.66 4.18.073 5.756.073h19.1c2.31 0 4.143 1.063 4.877 2.823.733 1.797.183 3.813-1.43 5.463L12.318 24.527c-.33.33-.55.733-.366 1.063.11.22.366.366.843.366H26.36c1.136 0 2.09.294 2.713.77.916.697 1.283 1.65 1.283 2.787 0 1.136-.403 2.09-1.283 2.786-.623.477-1.54.77-2.713.77H5.39c-2.31 0-4.143-1.063-4.877-2.823-.733-1.796-.183-3.813 1.43-5.463l16.021-16.13zM78.236 4.95v24.196c0 1.137.294 2.09.77 2.713.697.917 1.65 1.283 2.787 1.283 1.136 0 2.09-.403 2.786-1.283.476-.623.77-1.54.77-2.713V13.858c0-.586.073-.806.33-.953.293-.146.66-.037 1.063.477L101.7 31.309c.477.55.99.99 1.576 1.284a4.848 4.848 0 003.923.183c1.87-.697 2.786-2.383 2.786-4.656V5.793c0-1.577-.549-3.08-1.613-4.143C107.346.587 105.806.037 104.23.037h-2.97c-1.137 0-2.09.293-2.713.77-.917.696-1.283 1.65-1.283 2.786 0 1.137.403 2.09 1.283 2.786.623.477 1.54.77 2.713.77.293 0 .55 0 .807.11.476.22.769.697.769 1.21v10.779c0 .586-.073.843-.33.953-.293.11-.659.037-1.063-.477l-15.031-18c-.477-.55-.99-.99-1.577-1.284-1.173-.586-2.53-.696-3.886-.183-1.796.77-2.713 2.42-2.713 4.693zM45.79.037c-2.602.037-4.105.587-5.499 1.907-1.32 1.393-1.87 2.896-1.906 5.499l.037 18.257c.036 2.603.586 4.107 1.906 5.5 1.393 1.32 2.896 1.87 5.5 1.906h17.414a5.82 5.82 0 005.829-5.83v-2.895c0-1.137-.293-2.09-.77-2.713-.697-.917-1.65-1.284-2.786-1.284-1.137 0-2.09.404-2.787 1.284-.476.623-.77 1.54-.77 2.713 0 .293 0 .55-.11.806a1.33 1.33 0 01-1.21.77H47.002a1.377 1.377 0 01-1.357-1.357v-4.619c0-.073.073-.183.147-.183l.66-.147c.77-.146 1.466-.22 2.493-.22.476 0 1.063 0 1.686.037 1.283.073 2.64.146 3.74.146 2.236 0 4.032-.256 5.352-1.063 2.383-1.466 3.226-4.4 3.483-5.389.11-.403.073-.697 0-.917a1.146 1.146 0 00-.33-.403c-.183-.146-.403-.183-.66-.146-.293.036-.476.146-.77.293-1.65.77-3.593.77-5.646.806-.733 0-1.54 0-2.31.037-3.152.183-5.609 1.32-7.442 3.483-.146.183-.256.293-.256.293-.11.147-.184.11-.184-.073V8.542c0-.733.624-1.356 1.357-1.356h18.148c1.136 0 2.09-.293 2.713-.77.916-.696 1.283-1.65 1.283-2.786 0-1.137-.404-2.09-1.284-2.786-.623-.477-1.54-.77-2.712-.77L45.79.037zm103.9 16.681a.237.237 0 010-.22c.037-.074.11-.11.184-.22 1.32-1.687 2.09-3.813 2.09-6.16 0-5.535-4.51-10.045-10.046-10.045H127.62c-2.603.037-4.106.587-5.499 1.907-1.32 1.393-1.87 2.896-1.907 5.499v18.257c.037 2.604.587 4.107 1.907 5.5 1.393 1.32 2.896 1.87 5.499 1.906h14.298c5.536 0 10.046-4.51 10.046-10.045 0-2.31-.77-4.436-2.09-6.16-.074-.11-.11-.183-.184-.22zm-17.964 2.676c.623.477 1.54.77 2.713.77h7.149c.917 0 1.687.257 2.2.623.733.587 1.063 1.357 1.063 2.273 0 .917-.33 1.687-1.063 2.273-.513.404-1.247.623-2.2.623H128.72a1.378 1.378 0 01-1.357-1.356V8.542c0-.733.624-1.356 1.357-1.356h12.868c.917 0 1.687.256 2.2.623.733.586 1.063 1.356 1.063 2.273 0 .916-.33 1.686-1.063 2.273-.513.403-1.247.623-2.2.623h-7.149c-1.136 0-2.09.293-2.713.77-.916.697-1.283 1.65-1.283 2.786 0 1.174.367 2.127 1.283 2.86z"/></g><defs><clipPath id="clip0"><path fill="#fff" d="M0 0h152v33.142H0z"/></clipPath></defs></svg>