<svg width="150" height="23" fill="none" xmlns="http://www.w3.org/2000/svg"><g clip-path="url(#clip0)" fill="#fff"><path d="M0 .58h7.843c3.718 0 7.726.756 7.726 5.346 0 2.323-1.452 3.95-3.66 4.647v.058c2.789.349 4.648 2.44 4.648 5.17 0 4.416-4.183 5.868-7.9 5.868H0V.581zm4.648 8.425h3.369c1.452 0 2.905-.581 2.905-2.324 0-1.743-1.685-2.208-3.137-2.208H4.648v4.532zm0 8.772H8.83c1.453 0 3.08-.64 3.08-2.498 0-1.975-2.208-2.324-3.777-2.324H4.648v4.822zM23.47.58h-4.647v21.09h4.647V.58zM37.239.058c6.564 0 11.386 4.3 11.386 11.096 0 6.74-4.822 11.096-11.386 11.096-6.565 0-11.387-4.299-11.387-11.096C25.91 4.357 30.674.058 37.24.058zm0 17.893c4.008 0 6.564-2.905 6.564-6.797 0-3.95-2.614-6.797-6.564-6.797s-6.565 2.847-6.565 6.797c.058 3.893 2.614 6.797 6.565 6.797zM51.53.58h12.897v1.802H53.505v7.494H63.73v1.801H53.505v8.25h11.386v1.742H51.53V.581zm16.382 0H80.52v1.802H69.888v7.494h9.934v1.801h-9.934v9.992h-1.976V.581zm15.512 0H96.03v1.802H85.34v7.494h9.935v1.801h-9.934v9.992h-1.917V.581zm15.453 0h12.897v1.802h-10.922v7.494h10.225v1.801h-10.225v8.25h11.387v1.742H98.877V.581zm41.944 1.802h-7.204V.58H150v1.8h-7.262v19.29h-1.917V2.382zm-16.15 18.068c-5.345 0-8.656-4.067-8.656-9.296 0-5.228 3.311-9.295 8.656-9.295 3.66 0 6.39 1.917 7.726 4.822l1.453-1.278C132.107 2.09 128.795 0 124.613 0c-6.275 0-10.574 4.648-10.574 11.096s4.358 11.096 10.574 11.096c4.415 0 7.842-2.324 9.469-5.925l-1.568-1.162c-1.162 3.195-3.951 5.344-7.843 5.344z"/></g><defs><clipPath id="clip0"><path fill="#fff" d="M0 0h150v22.25H0z"/></clipPath></defs></svg>