<svg width="150" height="19" fill="none" xmlns="http://www.w3.org/2000/svg"><g clip-path="url(#clip0)"><path fill-rule="evenodd" clip-rule="evenodd" d="M82.287.32c6.897 0 11.151 3.682 11.151 9.229 0 5.546-4.254 9.227-11.151 9.227-6.874 0-11.128-3.681-11.128-9.227 0-5.547 4.254-9.229 11.128-9.229zm23.163 0c5.765 0 9.617 2.37 9.667 6.051h-3.726c.026-1.74-2.013-3.025-5.689-3.05-3.6 0-5.815.706-5.815 2.345 0 3.907 15.733-.278 15.733 7.463 0 3.605-4.002 5.647-9.867 5.647-6.017 0-9.92-2.446-9.844-6.05h3.726c-.025 1.713 2.09 3.024 5.84 3.024 4.003.025 6.546-.68 6.546-2.496 0-4.286-15.759.202-15.759-7.311 0-3.606 3.751-5.623 9.188-5.623zm23.768 0c6.898 0 11.152 3.682 11.152 9.229 0 5.546-4.254 9.227-11.152 9.227-6.873 0-11.127-3.681-11.127-9.227 0-5.547 4.254-9.229 11.127-9.229zM34.895.723l12.34 17.65h-24.68L34.895.723zm-31.328 0L16.76 13.432V.724h3.574v17.649h-3.272L3.895 5.666v12.707H.32V.723h3.247zm58.98 0c3.65 0 5.663 1.968 5.663 4.665 0 2.597-1.913 3.833-4.883 4.01 3.297.074 5.463 1.537 5.463 4.285 0 2.824-2.266 4.69-5.69 4.69H49.456V.723h13.09zm19.74 2.598c-4.583 0-7.553 2.32-7.553 6.228 0 3.907 2.97 6.202 7.553 6.202 4.606 0 7.577-2.295 7.577-6.202 0-3.908-2.97-6.228-7.577-6.228zm46.931 0c-4.582 0-7.552 2.32-7.552 6.228 0 3.907 2.97 6.202 7.552 6.202 4.607 0 7.577-2.295 7.577-6.202 0-3.908-2.97-6.228-7.577-6.228zM34.895 6.462l-6.223 8.9h12.446l-6.223-8.9zm27.324 4.196h-9.214v4.664h9.214c1.888 0 2.97-.706 2.97-2.37 0-1.588-1.082-2.294-2.97-2.294zm-.553-6.934h-8.66v4.437h8.66c1.888 0 2.97-.63 2.97-2.168 0-1.588-1.082-2.269-2.97-2.269zM146.624.601c.795 0 1.472.28 2.032.837.56.559.84 1.234.84 2.027 0 .796-.28 1.475-.84 2.038a2.76 2.76 0 01-2.032.846c-.794 0-1.47-.282-2.027-.846a2.795 2.795 0 01-.833-2.038c0-.79.28-1.466.841-2.027a2.748 2.748 0 012.019-.837zm0 .391c-.68 0-1.26.243-1.742.728a2.397 2.397 0 00-.719 1.749c0 .689.239 1.276.716 1.76a2.359 2.359 0 001.745.728 2.36 2.36 0 001.747-.728 2.417 2.417 0 00.719-1.76c0-.683-.241-1.266-.719-1.75a2.374 2.374 0 00-1.747-.727zm-.054.888c.39 0 .678.038.859.114.326.136.489.402.489.799 0 .282-.103.49-.308.623-.109.07-.261.12-.454.152.247.04.426.143.54.31a.863.863 0 01.171.487v.231c0 .073.003.151.007.235a.49.49 0 00.029.164l.018.039h-.518a.112.112 0 01-.008-.032.12.12 0 01-.008-.035l-.013-.1v-.25c0-.364-.098-.605-.296-.722-.118-.068-.323-.101-.618-.101h-.437v1.24h-.555V1.88h1.102zm-.072.38h-.475v1.142h.501c.236 0 .411-.023.53-.07.215-.086.325-.25.325-.493 0-.23-.07-.384-.209-.462-.141-.078-.365-.117-.672-.117z" fill="#fff"/></g><defs><clipPath id="clip0"><path fill="#fff" d="M0 0h150v18.902H0z"/></clipPath></defs></svg>